<svg width="600" height="600" viewBox="0 0 600 600" fill="none" xmlns="http://www.w3.org/2000/svg">
<g clip-path="url(#clip0_1_2)">
<rect width="600" height="600" fill="white"/>
<rect width="600" height="600" fill="url(#paint0_radial_1_2)"/>
<g filter="url(#filter0_i_1_2)">
<path d="M120.102 300.707C120.102 289.925 122.837 281.363 128.306 275.019C133.774 268.675 141.665 265.504 151.977 265.504C157.915 265.504 162.946 266.425 167.071 268.269C171.196 270.113 174.102 272.785 175.79 276.285C176.915 278.597 176.727 280.16 175.227 280.972L169.602 283.972C167.634 285.035 166.009 284.441 164.727 282.191C163.915 280.754 162.399 279.457 160.181 278.3C157.993 277.144 155.415 276.566 152.446 276.566C145.884 276.566 141.29 278.644 138.665 282.8C136.04 286.925 134.727 292.894 134.727 300.707C134.727 308.519 136.04 314.504 138.665 318.66C141.29 322.785 145.884 324.847 152.446 324.847C155.977 324.847 158.946 324.05 161.352 322.457C163.79 320.863 165.477 319.347 166.415 317.91C167.946 315.566 169.571 314.972 171.29 316.129L176.915 319.879C178.446 320.91 178.602 322.472 177.384 324.566C175.571 327.691 172.462 330.363 168.056 332.582C163.649 334.8 158.29 335.91 151.977 335.91C141.821 335.91 133.962 332.738 128.399 326.394C122.868 320.05 120.102 311.488 120.102 300.707ZM193.321 334.316C191.134 334.316 190.04 333.144 190.04 330.8V270.613C190.04 268.269 191.134 267.097 193.321 267.097H200.446C202.634 267.097 203.727 268.269 203.727 270.613V293.535H228.946V270.613C228.946 268.269 230.04 267.097 232.227 267.097H239.352C241.54 267.097 242.634 268.269 242.634 270.613V330.8C242.634 333.144 241.54 334.316 239.352 334.316H232.227C230.04 334.316 228.946 333.144 228.946 330.8V305.16H203.727V330.8C203.727 333.144 202.634 334.316 200.446 334.316H193.321Z" fill="white"/>
<path d="M360.507 334.316C358.319 334.316 357.226 333.144 357.226 330.8V270.613C357.226 268.269 358.319 267.097 360.507 267.097H367.444C370.132 267.097 372.163 268.191 373.538 270.379L397.444 308.769H397.773C397.616 306.894 397.538 305.019 397.538 303.144V270.613C397.538 268.269 398.632 267.097 400.819 267.097H407.944C410.132 267.097 411.226 268.269 411.226 270.613V330.8C411.226 333.144 410.132 334.316 407.944 334.316H401.476C398.788 334.316 396.757 333.222 395.382 331.035L371.007 291.941H370.679C370.835 293.816 370.913 295.691 370.913 297.566V330.8C370.913 333.144 369.819 334.316 367.632 334.316H360.507ZM424.116 334.316C421.866 334.316 421.132 333.285 421.913 331.222L444.882 270.894C445.851 268.363 447.319 267.097 449.288 267.097H455.851C457.819 267.097 459.288 268.363 460.257 270.894L483.226 331.222C484.007 333.285 483.273 334.316 481.023 334.316H473.569C471.507 334.316 470.069 333.238 469.257 331.082L464.476 318.472H440.663L435.882 331.082C435.069 333.238 433.632 334.316 431.569 334.316H424.116ZM445.023 306.847H460.116L454.351 291.941C453.663 290.191 453.241 288.925 453.085 288.144C452.96 287.332 452.819 286.144 452.663 284.582H452.476C452.319 286.144 452.163 287.332 452.007 288.144C451.882 288.925 451.476 290.191 450.788 291.941L445.023 306.847Z" fill="white"/>
<g clip-path="url(#clip1_1_2)">
<path d="M334.877 309.143C334.878 306.608 334.379 304.098 333.409 301.756C332.44 299.414 331.018 297.285 329.225 295.493C327.433 293.7 325.304 292.279 322.962 291.309C320.62 290.339 318.11 289.84 315.575 289.841L310.315 289.841L310.315 284.581C310.315 279.461 308.281 274.552 304.661 270.932C301.041 267.312 296.131 265.278 291.012 265.278C285.893 265.278 280.983 267.312 277.363 270.932C273.743 274.552 271.709 279.461 271.709 284.581L271.709 328.446H315.575C318.11 328.447 320.62 327.948 322.962 326.978C325.304 326.008 327.433 324.586 329.225 322.794C331.018 321.001 332.44 318.873 333.409 316.531C334.379 314.189 334.878 311.678 334.877 309.143Z" fill="#E60076" stroke="#E60076" stroke-width="4" stroke-linecap="round" stroke-linejoin="round"/>
</g>
</g>
</g>
<defs>
<filter id="filter0_i_1_2" x="119.102" y="246" width="365.295" height="121.092" filterUnits="userSpaceOnUse" color-interpolation-filters="sRGB">
<feFlood flood-opacity="0" result="BackgroundImageFix"/>
<feBlend mode="normal" in="SourceGraphic" in2="BackgroundImageFix" result="shape"/>
<feColorMatrix in="SourceAlpha" type="matrix" values="0 0 0 0 0 0 0 0 0 0 0 0 0 0 0 0 0 0 127 0" result="hardAlpha"/>
<feOffset dx="-1" dy="2"/>
<feGaussianBlur stdDeviation="2"/>
<feComposite in2="hardAlpha" operator="arithmetic" k2="-1" k3="1"/>
<feColorMatrix type="matrix" values="0 0 0 0 0 0 0 0 0 0 0 0 0 0 0 0 0 0 0.46 0"/>
<feBlend mode="plus-darker" in2="shape" result="effect1_innerShadow_1_2"/>
</filter>
<radialGradient id="paint0_radial_1_2" cx="0" cy="0" r="1" gradientUnits="userSpaceOnUse" gradientTransform="translate(300 300) rotate(90) scale(300)">
<stop stop-color="#0D0D0D"/>
<stop offset="1" stop-color="#0D0D0D" stop-opacity="0.94"/>
</radialGradient>
<clipPath id="clip0_1_2">
<rect width="600" height="600" fill="white"/>
</clipPath>
<clipPath id="clip1_1_2">
<rect width="84.2105" height="84.2105" fill="white" transform="translate(294.61 246) rotate(45)"/>
</clipPath>
</defs>
</svg>
